<svg width="520" height="524" viewBox="0 0 520 524" fill="none" xmlns="http://www.w3.org/2000/svg">
<g filter="url(#filter0_d)">
<path d="M509.743 6.249C503.663 0.148002 494.532 -1.644 486.575 1.577L17.242 193.577C8.47399 197.182 3.11899 206.121 4.12199 215.55C5.10299 224.979 12.186 232.617 21.509 234.323L241.648 274.344L281.691 494.483C283.376 503.806 291.014 510.888 300.443 511.891C301.19 511.955 301.936 511.998 302.662 511.998C311.238 511.998 319.11 506.814 322.417 498.729L514.417 29.396C517.658 21.459 515.823 12.329 509.743 6.249Z" fill="black"/>
<path d="M506.556 9.4255L506.561 9.43098C511.361 14.2305 512.807 21.4361 510.251 27.6948L318.252 497.025L318.252 497.025C315.643 503.403 309.428 507.498 302.662 507.498C302.12 507.498 301.526 507.466 300.874 507.411C293.446 506.602 287.445 501.018 286.119 493.683L286.118 493.678L246.075 273.539L245.518 270.474L242.453 269.917L22.319 229.896C22.3179 229.896 22.3168 229.896 22.3157 229.896C14.9563 228.548 9.37149 222.52 8.59784 215.084L8.59674 215.074C7.80652 207.645 12.0228 200.591 18.9474 197.741C18.9493 197.741 18.9512 197.74 18.9532 197.739L488.264 5.74821C488.266 5.74713 488.269 5.74606 488.271 5.74499C494.574 3.19737 501.774 4.6273 506.556 9.4255Z" stroke="white" stroke-width="9"/>
</g>
<defs>
<filter id="filter0_d" x="0.00183105" y="0.000640869" width="519.995" height="523.997" filterUnits="userSpaceOnUse" color-interpolation-filters="sRGB">
<feFlood flood-opacity="0" result="BackgroundImageFix"/>
<feColorMatrix in="SourceAlpha" type="matrix" values="0 0 0 0 0 0 0 0 0 0 0 0 0 0 0 0 0 0 127 0"/>
<feOffset dy="8"/>
<feGaussianBlur stdDeviation="2"/>
<feColorMatrix type="matrix" values="0 0 0 0 0 0 0 0 0 0 0 0 0 0 0 0 0 0 0.25 0"/>
<feBlend mode="normal" in2="BackgroundImageFix" result="effect1_dropShadow"/>
<feBlend mode="normal" in="SourceGraphic" in2="effect1_dropShadow" result="shape"/>
</filter>
</defs>
</svg>
